<svg xmlns="http://www.w3.org/2000/svg" fill="none" viewBox="0 0 24 24"><path fill="#115740" fill-rule="evenodd" d="M16.236 1c.142 1.277-.37 2.535-1.12 3.46-.781.91-2.032 1.607-3.25 1.517-.16-1.229.458-2.535 1.149-3.332.78-.905 2.137-1.598 3.221-1.645Zm3.987 7.366c-.136.08-2.388 1.407-2.363 4.114.028 3.268 2.896 4.349 2.93 4.36-.016.077-.448 1.56-1.524 3.067-.898 1.325-1.84 2.622-3.334 2.645-.71.017-1.19-.185-1.69-.395-.522-.22-1.066-.448-1.916-.448-.902 0-1.47.236-2.017.463-.473.197-.931.387-1.577.413-1.424.052-2.512-1.415-3.442-2.73-1.861-2.683-3.31-7.56-1.368-10.88.942-1.628 2.658-2.676 4.492-2.704.808-.017 1.582.29 2.261.56.52.206.983.39 1.363.39.333 0 .784-.177 1.309-.382.827-.324 1.84-.721 2.871-.614.706.02 2.713.275 4.008 2.14h-.003Z" clip-rule="evenodd"/><mask id="a" width="18" height="22" x="3" y="1" maskUnits="userSpaceOnUse" style="mask-type:alpha"><path fill="#fff" fill-rule="evenodd" d="M16.236 1c.142 1.277-.37 2.535-1.12 3.46-.781.91-2.032 1.607-3.25 1.517-.16-1.229.458-2.535 1.149-3.332.78-.905 2.137-1.598 3.221-1.645Zm3.987 7.366c-.136.08-2.388 1.407-2.363 4.114.028 3.268 2.896 4.349 2.93 4.36-.016.077-.448 1.56-1.524 3.067-.898 1.325-1.84 2.622-3.334 2.645-.71.017-1.19-.185-1.69-.395-.522-.22-1.066-.448-1.916-.448-.902 0-1.47.236-2.017.463-.473.197-.931.387-1.577.413-1.424.052-2.512-1.415-3.442-2.73-1.861-2.683-3.31-7.56-1.368-10.88.942-1.628 2.658-2.676 4.492-2.704.808-.017 1.582.29 2.261.56.52.206.983.39 1.363.39.333 0 .784-.177 1.309-.382.827-.324 1.84-.721 2.871-.614.706.02 2.713.275 4.008 2.14h-.003Z" clip-rule="evenodd"/></mask><g mask="url(#a)"><path fill="#115740" d="M0 0h24v24H0z"/></g></svg>