<svg xmlns="http://www.w3.org/2000/svg" fill="none" viewBox="0 0 24 24"><path fill="#115740" fill-rule="evenodd" d="M11.173 11.572V4.35L20.965 3v8.572h-9.792Zm-.81 0H3v-6.1l7.363-1.014v7.114Zm0 7.936L3 18.493v-6.014h7.363v7.029Zm.81.108 9.792 1.35v-8.487h-9.792v7.137Z" clip-rule="evenodd"/><mask id="a" width="18" height="18" x="3" y="3" maskUnits="userSpaceOnUse" style="mask-type:alpha"><path fill="#fff" fill-rule="evenodd" d="M11.173 11.572V4.35L20.965 3v8.572h-9.792Zm-.81 0H3v-6.1l7.363-1.014v7.114Zm0 7.936L3 18.493v-6.014h7.363v7.029Zm.81.108 9.792 1.35v-8.487h-9.792v7.137Z" clip-rule="evenodd"/></mask><g mask="url(#a)"><path fill="#115740" d="M0 0h24v24H0z"/></g></svg>