<?xml version="1.0" encoding="utf-8"?>
<!-- Generator: Adobe Illustrator 26.3.1, SVG Export Plug-In . SVG Version: 6.00 Build 0)  -->
<svg version="1.1" id="Layer_1" xmlns="http://www.w3.org/2000/svg" xmlns:xlink="http://www.w3.org/1999/xlink" x="0px" y="0px"
	 viewBox="0 0 40 40" style="enable-background:new 0 0 40 40;" xml:space="preserve">
<style type="text/css">
	.st0{fill:none;stroke:#FFFAF3;stroke-miterlimit:10;}
	.st1{fill:#FFFAF3;}
</style>
<circle class="st0" cx="20" cy="20" r="19"/>
<g transform="matrix(1.01619,0,0,1.01619,44,43.8384)">
	<path class="st1" d="M-23.6-33.9c-2.8,0-3.2,0-4.3,0.1c-1.1,0-1.9,0.2-2.5,0.5c-0.7,0.3-1.3,0.6-1.9,1.2c-0.6,0.6-0.9,1.2-1.2,1.9
		c-0.3,0.7-0.4,1.4-0.5,2.5c0,1.1-0.1,1.5-0.1,4.3s0,3.2,0.1,4.3c0.1,1.1,0.2,1.9,0.5,2.5c0.3,0.7,0.6,1.3,1.2,1.9
		c0.6,0.6,1.2,0.9,1.9,1.2c0.7,0.3,1.4,0.4,2.5,0.5c1.1,0,1.5,0.1,4.3,0.1s3.2,0,4.3-0.1c1.1,0,1.9-0.2,2.5-0.5
		c0.7-0.3,1.3-0.6,1.9-1.2c0.6-0.6,0.9-1.2,1.2-1.9c0.3-0.7,0.4-1.4,0.5-2.5c0-1.1,0.1-1.5,0.1-4.3s0-3.2-0.1-4.3
		c0-1.1-0.2-1.9-0.5-2.5c-0.3-0.7-0.6-1.3-1.2-1.9c-0.6-0.6-1.2-0.9-1.9-1.2c-0.7-0.3-1.4-0.4-2.5-0.5
		C-20.4-33.9-20.8-33.9-23.6-33.9z M-23.6-32c2.8,0,3.1,0,4.2,0.1c1,0,1.6,0.2,1.9,0.4c0.5,0.2,0.8,0.4,1.2,0.8
		c0.4,0.4,0.6,0.7,0.8,1.2c0.1,0.4,0.3,0.9,0.4,1.9c0,1.1,0.1,1.4,0.1,4.2s0,3.1-0.1,4.2c0,1-0.2,1.6-0.4,1.9
		c-0.2,0.5-0.4,0.8-0.8,1.2c-0.4,0.4-0.7,0.6-1.2,0.8c-0.4,0.1-0.9,0.3-1.9,0.4c-1.1,0-1.4,0.1-4.2,0.1s-3.1,0-4.2-0.1
		c-1,0-1.6-0.2-1.9-0.4c-0.5-0.2-0.8-0.4-1.2-0.8c-0.4-0.4-0.6-0.7-0.8-1.2c-0.1-0.4-0.3-0.9-0.4-1.9c0-1.1-0.1-1.4-0.1-4.2
		s0-3.1,0.1-4.2c0-1,0.2-1.6,0.4-1.9c0.2-0.5,0.4-0.8,0.8-1.2c0.4-0.4,0.7-0.6,1.2-0.8c0.4-0.1,0.9-0.3,1.9-0.4
		C-26.7-32-26.4-32-23.6-32z"/>
	<path class="st1" d="M-23.6-20c-1.9,0-3.5-1.6-3.5-3.5s1.6-3.5,3.5-3.5s3.5,1.6,3.5,3.5S-21.7-20-23.6-20z M-23.6-28.8
		c-3,0-5.4,2.4-5.4,5.4s2.4,5.4,5.4,5.4s5.4-2.4,5.4-5.4S-20.6-28.8-23.6-28.8z"/>
	<path class="st1" d="M-16.8-29c0,0.7-0.6,1.2-1.2,1.2s-1.2-0.6-1.2-1.2c0-0.7,0.6-1.2,1.2-1.2S-16.8-29.7-16.8-29z"/>
</g>
</svg>
