<?xml version="1.0" encoding="UTF-8"?><svg id="Layer_1" xmlns="http://www.w3.org/2000/svg" viewBox="0 0 40 40"><defs><style>.cls-1{fill:#fffaf3;}.cls-2{fill:none;stroke:#fffaf3;stroke-miterlimit:10;}</style></defs><circle class="cls-2" cx="20" cy="20" r="19"/><path class="cls-1" d="M28.5,10.02c.81,0,1.48,.64,1.48,1.44V28.54c0,.79-.66,1.44-1.48,1.44H11.5c-.81,0-1.47-.65-1.47-1.44V11.46c0-.79,.66-1.44,1.47-1.44H28.5Zm-1.47,17v-5.22c0-2.56-.55-4.54-3.55-4.54-1.44,0-2.41,.79-2.8,1.54h-.04v-1.3h-2.84v9.52h2.96v-4.71c0-1.24,.23-2.45,1.77-2.45s1.54,1.42,1.54,2.52v4.63h2.96Zm-11.08-9.52h-2.96v9.52h2.96v-9.52Zm-1.48-4.73c-.95,0-1.72,.77-1.72,1.72s.77,1.72,1.72,1.72,1.72-.77,1.72-1.72-.77-1.72-1.72-1.72Z"/></svg>