<svg xmlns="http://www.w3.org/2000/svg" xml:space="preserve" id="Layer_1" x="0" y="0" version="1.1" viewBox="0 0 240 39"><style>.st0{fill:#a6d49f}.st1{fill:#b2dbed}.st2{fill:#42966a}.st3{fill:#007dd6}</style><path d="M55.7 38.5c-2.6 0-4.8-.5-6.6-1.4-1.8-.9-3.4-2.3-4.9-4.1l3.7-3.7c.9 1.3 2 2.3 3.2 3.1 1.3.7 2.8 1.1 4.8 1.1 1.8 0 3.3-.4 4.3-1.1 1.1-.8 1.6-1.8 1.6-3.1 0-1.1-.3-2-.8-2.7-.6-.7-1.3-1.3-2.2-1.7s-1.9-.9-3.1-1.2l-3.3-1.2c-1.1-.4-2.1-1-3.1-1.7s-1.7-1.6-2.2-2.7c-.6-1.1-.8-2.5-.8-4.2 0-1.9.5-3.6 1.4-5 1-1.4 2.2-2.4 3.9-3.1C53.2 5 55 4.7 57 4.7c2.2 0 4.1.4 5.8 1.3 1.7.8 3.1 1.9 4.2 3.2l-3.7 3.7c-.9-1.1-1.9-1.9-2.9-2.4s-2.2-.8-3.5-.8c-1.6 0-2.9.3-3.8 1-.9.7-1.4 1.6-1.4 2.8 0 1 .3 1.8.8 2.4.6.6 1.3 1.1 2.2 1.5.9.4 1.9.8 3.1 1.2 1.1.4 2.2.8 3.3 1.3 1.1.5 2.1 1.1 3.1 1.8.9.7 1.7 1.7 2.2 2.8.6 1.2.8 2.6.8 4.4 0 2.9-1 5.3-3.1 7-2 1.7-4.8 2.6-8.4 2.6zM90.3 19.3c-.7-1.3-1.8-2.4-3.1-3.1-1.3-.8-2.8-1.1-4.5-1.1-1.7 0-3.2.4-4.5 1.2-.9.5-1.6 1.1-2.2 1.9v-14h-5.2V38H76V25c0-1 .2-1.9.7-2.7s1-1.4 1.8-1.8c.8-.4 1.7-.7 2.7-.7 1.5 0 2.7.5 3.7 1.5s1.4 2.2 1.4 3.7v13h5.2V23.9c-.1-1.8-.5-3.3-1.2-4.6zM111.8 15.5V18c-.7-.8-1.4-1.4-2.3-1.9-1.3-.7-2.9-1.1-4.6-1.1-2 0-3.9.5-5.5 1.6-1.6 1-2.9 2.5-3.9 4.2-1 1.8-1.4 3.8-1.4 6s.5 4.2 1.4 5.9c1 1.8 2.3 3.2 3.9 4.2s3.5 1.5 5.5 1.5c1.7 0 3.3-.4 4.6-1.1.9-.5 1.7-1.1 2.3-1.9V38h5.2V15.5h-5.2zm-1.4 16.2c-1.2 1.3-2.7 1.9-4.6 1.9-1.3 0-2.4-.3-3.3-.9-1-.6-1.7-1.4-2.3-2.4-.5-1-.8-2.2-.8-3.6 0-1.3.3-2.5.8-3.6.5-1 1.3-1.8 2.3-2.4 1-.6 2.1-.9 3.3-.9 1.3 0 2.4.3 3.4.9 1 .6 1.7 1.4 2.2 2.4.5 1 .8 2.2.8 3.6-.1 2-.7 3.7-1.8 5zM135.6 15.6c-.9-.4-1.9-.6-3.1-.6-2.6 0-4.5.9-5.7 2.7 0 .1-.1.1-.1.2v-2.4h-5.2V38h5.2V25.5c0-1.9.5-3.4 1.4-4.3.9-.9 2.1-1.4 3.6-1.4.7 0 1.2.1 1.7.3.5.2 1 .5 1.4.9l3.4-3.5c-.8-.8-1.7-1.5-2.6-1.9zM158.3 20.5c-.9-1.7-2.2-3-3.8-4-1.6-1-3.5-1.5-5.6-1.5-2.2 0-4.1.5-5.9 1.5-1.8 1-3.2 2.4-4.2 4.2-1 1.8-1.5 3.8-1.5 6s.5 4.2 1.6 6c1.1 1.8 2.5 3.2 4.3 4.2 1.8 1 3.8 1.5 6.1 1.5 1.8 0 3.4-.3 5-1s2.9-1.6 4-2.9l-3.3-3.3c-.7.8-1.5 1.4-2.5 1.8-1 .4-2.1.6-3.2.6-1.3 0-2.5-.3-3.6-.9-1-.6-1.8-1.4-2.4-2.5-.3-.5-.5-1.1-.6-1.6h16.8c.1-.5.2-.9.2-1.3s.1-.8.1-1.2c-.1-2-.5-4-1.5-5.6zM143.2 23c.5-1 1.3-1.8 2.3-2.4 1-.6 2.1-.8 3.4-.8 1.3 0 2.3.3 3.2.8.9.5 1.5 1.2 2 2.2.3.5.5 1.1.6 1.8h-12c.1-.7.3-1.2.5-1.6z" class="st0"/><path d="M178 20.2v4.9h10.5c-.2 1.3-.5 2.4-1.1 3.4-.8 1.6-2.1 2.8-3.6 3.6-1.6.8-3.5 1.2-5.7 1.2-2.1 0-3.9-.5-5.5-1.5s-2.9-2.4-3.9-4.2c-1-1.8-1.4-3.8-1.4-6.1s.5-4.3 1.4-6.1c.9-1.8 2.3-3.1 4-4.1 1.7-1 3.7-1.5 5.9-1.5 1.9 0 3.6.4 5.3 1.1 1.6.7 2.9 1.8 3.9 3.2l3.7-3.7c-1.5-1.8-3.4-3.3-5.6-4.3-2.2-1-4.6-1.5-7.2-1.5-2.4 0-4.6.4-6.6 1.3-2.1.9-3.8 2.1-5.4 3.6-1.5 1.5-2.7 3.3-3.6 5.4-.9 2-1.3 4.2-1.3 6.6 0 2.3.4 4.5 1.3 6.6.9 2 2 3.8 3.5 5.4 1.5 1.5 3.3 2.8 5.3 3.6 2 .9 4.1 1.3 6.4 1.3 3.1 0 5.8-.6 8.3-1.9 2.4-1.3 4.3-3.2 5.7-5.8 1.4-2.6 2.1-5.8 2.1-9.8v-.8H178zM213 15.6c-.9-.4-1.9-.6-3.1-.6-2.6 0-4.5.9-5.7 2.7 0 .1-.1.1-.1.2v-2.4h-5.2V38h5.2V25.5c0-1.9.5-3.4 1.4-4.3.9-.9 2.1-1.4 3.6-1.4.7 0 1.2.1 1.7.3.5.2 1 .5 1.4.9l3.4-3.5c-.9-.8-1.7-1.5-2.6-1.9zM227.7 38.5c-2.2 0-4.2-.5-6-1.6-1.8-1-3.2-2.5-4.2-4.2-1.1-1.8-1.6-3.8-1.6-6s.5-4.2 1.6-5.9c1-1.8 2.5-3.2 4.2-4.2 1.8-1 3.8-1.6 6-1.6s4.2.5 6 1.5c1.8 1 3.2 2.4 4.2 4.2 1 1.8 1.6 3.7 1.6 5.9s-.5 4.2-1.6 6c-1.1 1.8-2.5 3.2-4.2 4.2-1.8 1.1-3.8 1.7-6 1.7zm0-5c1.3 0 2.4-.3 3.4-.9 1-.6 1.8-1.4 2.3-2.4.5-1 .8-2.2.8-3.5 0-1.3-.3-2.5-.8-3.5-.6-1-1.3-1.8-2.3-2.4-1-.6-2.1-.9-3.4-.9-1.3 0-2.4.3-3.4.9-1 .6-1.8 1.4-2.3 2.4-.5 1-.8 2.2-.8 3.5 0 1.3.3 2.5.8 3.5s1.3 1.8 2.3 2.4c1 .6 2.1.9 3.4.9z" class="st1"/><circle cx="15.7" cy="6.9" r="6.6" class="st1"/><path d="M.5 12.9v.3c0 5.6 5.7 14 14.4 14v-7c0-3.7-3.8-7.3-7.7-7.3H.5z" class="st1"/><path d="M1.1 24.5H.5v.3c0 5.6 5.7 14 14.4 14v-4.9c-6.6-.1-11.5-4.7-13.8-9.4z" class="st2"/><path d="M14.9 33v-5c-4.1 0-8-1.8-11-5.1-1.2-1.3-2.1-2.7-2.8-4.2H.5v.3c0 5.6 5.7 14 14.4 14z" class="st0"/><path d="M13.3 33.7h.1c0 .1 0 .1-.1 0zM14.9 33.8z" class="st3"/><path d="M8.7 32.4c.2.1.3.2.5.2-.1-.1-.3-.1-.5-.2z" class="st2"/><path d="M11.8 33.5h.2-.2z" class="st3"/><path d="M24.3 12.9c-3.9 0-7.7 3.6-7.7 7.3v7c8.6 0 14.4-8.4 14.4-14v-.3h-6.7z" class="st1"/><g><path d="M30.4 24.5h.6v.3c0 5.6-5.7 14-14.4 14v-4.9c6.5-.1 11.5-4.7 13.8-9.4z" class="st2"/></g><g><path d="M16.6 33v-5c4.1 0 8-1.8 11-5.1 1.2-1.3 2.1-2.7 2.8-4.2h.6v.3c-.1 5.6-5.8 14-14.4 14z" class="st0"/><path d="M18.1 33.7H18c0 .1.1.1.1 0zM16.5 33.8c.1 0 0 0 0 0zM22.7 32.4c-.2.1-.3.2-.5.2.2-.1.3-.1.5-.2zM19.6 33.5h-.2.2z" class="st3"/></g></svg>