<svg xmlns="http://www.w3.org/2000/svg" xml:space="preserve" id="Layer_1" x="0" y="0" style="enable-background:new 0 0 284 50" version="1.1" viewBox="0 0 284 50"><style>.st0{fill:#42966a}.st1{fill:#115740}.st2{fill:#6fafd1}.st3{fill:#007dd6}</style><path d="M66 46.9c-3.1 0-5.7-.5-7.9-1.6-2.2-1-4.2-2.6-5.9-4.7l4.9-4.9c1.1 1.5 2.4 2.6 3.9 3.4s3.3 1.2 5.4 1.2c1.9 0 3.4-.4 4.6-1.1 1.1-.8 1.7-1.8 1.7-3.1 0-1.2-.3-2.1-1-2.8-.7-.7-1.5-1.3-2.6-1.8s-2.2-1-3.5-1.4c-1.3-.4-2.6-.9-3.8-1.4-1.3-.5-2.5-1.2-3.5-2-1.1-.8-1.9-1.9-2.6-3.1-.7-1.3-1-2.9-1-4.9 0-2.3.6-4.3 1.7-5.9S59 9.8 61 9c2-.9 4.2-1.3 6.6-1.3 2.6 0 4.9.5 7 1.5 2.1 1 3.8 2.2 5.1 3.8l-4.9 4.9c-1.1-1.2-2.3-2.1-3.4-2.7-1.2-.6-2.5-.9-4-.9-1.7 0-3 .3-4 1s-1.5 1.6-1.5 2.8c0 1 .3 1.9 1 2.5.7.6 1.5 1.2 2.6 1.7s2.2.9 3.5 1.3c1.3.4 2.6.9 3.8 1.5s2.5 1.2 3.5 2.1c1.1.9 1.9 2 2.6 3.3.7 1.3 1 3 1 5 0 3.5-1.2 6.3-3.7 8.3-2.4 2.1-5.8 3.1-10.2 3.1zM83.7 46.4V7.2h7.1v39.2h-7.1zm17.6 0v-15c0-1.6-.5-2.8-1.5-3.8s-2.2-1.5-3.8-1.5c-1 0-1.9.2-2.7.6-.8.4-1.4 1-1.9 1.8s-.7 1.7-.7 2.8L88 29.9c0-2.1.4-3.9 1.3-5.4.9-1.5 2.1-2.7 3.6-3.6 1.5-.9 3.3-1.3 5.3-1.3s3.7.4 5.3 1.3c1.5.9 2.7 2.1 3.6 3.6.9 1.5 1.3 3.3 1.3 5.3v16.6h-7.1zM123.7 46.9c-2.4 0-4.5-.6-6.4-1.8-1.9-1.2-3.4-2.8-4.5-4.9-1.1-2.1-1.6-4.4-1.6-6.9s.5-4.9 1.6-7c1.1-2.1 2.6-3.7 4.5-4.9 1.9-1.2 4.1-1.8 6.4-1.8 1.9 0 3.6.4 5 1.1 1.5.8 2.7 1.8 3.5 3.2.9 1.3 1.4 2.9 1.4 4.6v9.4c-.1 1.7-.6 3.3-1.4 4.6-.9 1.3-2.1 2.4-3.5 3.2-1.4.8-3.1 1.2-5 1.2zm1.3-6.6c2 0 3.6-.7 4.8-2 1.2-1.3 1.8-3 1.8-5.1 0-1.4-.3-2.6-.8-3.7-.6-1.1-1.3-1.9-2.3-2.5-1-.6-2.2-.9-3.5-.9s-2.4.3-3.4.9c-1 .6-1.8 1.4-2.3 2.5-.6 1.1-.8 2.3-.8 3.7s.3 2.6.8 3.7c.6 1.1 1.3 1.9 2.3 2.5 1 .7 2.1.9 3.4.9zm6.3 6.1v-7l1.1-6.4-1.1-6.3v-6.4h7v26.2h-7zM143.3 46.4V20.2h7.1v26.2h-7.1zm7.1-14.5-2.8-1.8c.3-3.2 1.3-5.8 2.8-7.6 1.6-1.9 3.8-2.8 6.7-2.8 1.3 0 2.4.2 3.4.6 1 .4 1.9 1.1 2.8 2l-4.4 5.1c-.4-.4-.9-.8-1.4-1-.6-.2-1.2-.3-1.9-.3-1.5 0-2.8.5-3.7 1.4-1 1-1.5 2.5-1.5 4.4zM176.3 46.9c-2.7 0-5.2-.6-7.3-1.8-2.1-1.2-3.8-2.8-5.1-4.9-1.2-2.1-1.9-4.4-1.9-7s.6-4.9 1.8-7 2.9-3.7 5-4.9c2.1-1.2 4.4-1.8 7-1.8s4.8.6 6.7 1.7 3.4 2.7 4.6 4.7c1.1 2 1.7 4.2 1.7 6.7 0 .5 0 .9-.1 1.4-.1.5-.2 1-.3 1.7l-22 .1v-5.3l18.7-.1-2.9 2.2c-.1-1.6-.4-2.9-.8-3.9-.5-1-1.2-1.8-2.1-2.4s-2.1-.8-3.4-.8c-1.4 0-2.6.3-3.7.9-1 .6-1.9 1.5-2.4 2.7-.6 1.1-.8 2.5-.8 4s.3 3 .9 4.1c.6 1.2 1.4 2.1 2.6 2.7s2.4.9 3.9.9c1.3 0 2.5-.2 3.6-.7 1.1-.5 2-1.1 2.8-2l4.2 4.2c-1.3 1.5-2.8 2.6-4.6 3.4-2 .8-4 1.2-6.1 1.2z" class="st0"/><path d="M210.1 46.9c-2.7 0-5.2-.5-7.6-1.5-2.4-1-4.4-2.4-6.2-4.2-1.8-1.8-3.2-3.9-4.2-6.3s-1.5-4.9-1.5-7.7.5-5.4 1.5-7.7 2.4-4.4 4.2-6.2c1.8-1.8 3.9-3.2 6.3-4.2s5-1.5 7.9-1.5c3.1 0 6 .6 8.7 1.8 2.6 1.2 4.8 2.8 6.6 5l-5 5c-1.2-1.6-2.7-2.7-4.4-3.6-1.8-.8-3.7-1.2-5.9-1.2-2.4 0-4.6.5-6.4 1.6-1.9 1.1-3.3 2.5-4.4 4.4-1 1.9-1.6 4.1-1.6 6.6s.5 4.8 1.5 6.7c1 1.9 2.4 3.4 4.2 4.5 1.8 1.1 3.8 1.6 6.2 1.6s4.4-.4 6.1-1.3c1.7-.9 3-2.2 3.9-3.9.9-1.7 1.4-3.8 1.4-6.3l4.8 3.3-16.6-.2v-6.4H229v1c0 4.6-.8 8.4-2.4 11.4-1.6 3.1-3.9 5.3-6.7 6.9-2.8 1.6-6.1 2.4-9.8 2.4zM233.9 46.4V20.2h7.1v26.2h-7.1zm7.1-14.5-2.8-1.8c.3-3.2 1.3-5.8 2.8-7.6 1.6-1.9 3.8-2.8 6.7-2.8 1.3 0 2.4.2 3.4.6 1 .4 1.9 1.1 2.8 2l-4.4 5.1c-.4-.4-.9-.8-1.4-1-.6-.2-1.2-.3-1.9-.3-1.5 0-2.8.5-3.7 1.4-1 1-1.5 2.5-1.5 4.4zM268 46.9c-2.6 0-5-.6-7.1-1.8-2.1-1.2-3.8-2.9-5-4.9-1.2-2.1-1.9-4.4-1.9-7s.6-4.9 1.8-6.9c1.2-2 2.9-3.7 5-4.9 2.1-1.2 4.5-1.8 7.1-1.8s5.1.6 7.2 1.8c2.1 1.2 3.8 2.8 5 4.9 1.2 2 1.8 4.3 1.8 6.9s-.6 4.9-1.8 7c-1.2 2.1-2.9 3.7-5 4.9-2.1 1.2-4.4 1.8-7.1 1.8zm0-6.6c1.3 0 2.5-.3 3.5-.9 1-.6 1.8-1.4 2.4-2.5.6-1.1.8-2.3.8-3.7s-.3-2.6-.9-3.6c-.6-1-1.4-1.9-2.4-2.5-1-.6-2.2-.9-3.5-.9-1.3 0-2.5.3-3.5.9-1 .6-1.8 1.4-2.4 2.5-.6 1-.9 2.3-.9 3.6s.3 2.6.9 3.7c.6 1.1 1.4 1.9 2.4 2.5 1.1.6 2.3.9 3.6.9z" class="st1"/><circle cx="19.6" cy="10.4" r="7.7" class="st2"/><path d="M2 17.4v.3c0 6.4 6.6 16.2 16.6 16.2v-8.1c0-4.2-4.4-8.4-8.9-8.4H2z" class="st2"/><path d="M2.7 30.7H2v.3c0 6.4 6.6 16.2 16.6 16.2v-5.7c-7.6 0-13.3-5.3-15.9-10.8z" class="st1"/><path d="M18.6 40.6v-5.7c-4.7 0-9.2-2.1-12.7-5.9-1.3-1.5-2.4-3.2-3.3-4.9H2v.3c0 6.4 6.6 16.1 16.6 16.2z" class="st0"/><path d="M16.8 41.5h.2-.2zM18.6 41.6z" class="st3"/><path d="M11.5 39.9c.2.1.4.2.5.3-.1-.1-.3-.2-.5-.3z" class="st0"/><path d="M15 41.1c.1 0 .2 0 .2.1 0 0-.1 0-.2-.1z" class="st3"/><path d="M29.5 17.4c-4.5 0-8.9 4.2-8.9 8.4v8.1c10 0 16.6-9.8 16.6-16.2v-.3h-7.7z" class="st2"/><path d="M36.5 30.7h.6v.3c0 6.4-6.6 16.2-16.6 16.2v-5.7c7.6 0 13.4-5.3 16-10.8z" class="st1"/><path d="M20.6 40.6v-5.7c4.7 0 9.2-2.1 12.7-5.9 1.3-1.5 2.4-3.2 3.3-4.9h.6v.3c-.1 6.4-6.7 16.1-16.6 16.2z" class="st0"/><path d="M22.3 41.5h-.2.2zM20.5 41.6zM27.6 39.9c-.2.1-.4.2-.5.3.2-.1.4-.2.5-.3zM24.1 41.1c-.1 0-.2 0-.2.1.1 0 .1 0 .2-.1z" class="st3"/></svg>