<?xml version="1.0" encoding="UTF-8"?><svg id="Layer_1" xmlns="http://www.w3.org/2000/svg" viewBox="0 0 40 40"><defs><style>.cls-1{fill:#fffaf3;}.cls-2{fill:none;stroke:#fffaf3;stroke-miterlimit:10;}</style></defs><circle class="cls-2" cx="20" cy="20" r="19"/><path class="cls-1" d="M16.38,30.72c9.32,0,14.42-7.72,14.42-14.42,0-.22,0-.44-.01-.66,.99-.72,1.85-1.61,2.53-2.62-.92,.41-1.91,.68-2.91,.8,1.06-.63,1.85-1.63,2.23-2.8-.99,.59-2.08,1.01-3.22,1.23-.96-1.02-2.3-1.6-3.7-1.6-2.78,0-5.07,2.29-5.07,5.07,0,.39,.04,.77,.13,1.15-4.07-.2-7.87-2.13-10.44-5.29-1.34,2.3-.65,5.29,1.57,6.76-.81-.02-1.6-.24-2.3-.63v.06c0,2.4,1.71,4.49,4.07,4.97-.75,.2-1.53,.23-2.29,.09,.66,2.06,2.57,3.48,4.73,3.52-1.79,1.41-4.01,2.18-6.29,2.17-.4,0-.81-.03-1.21-.07,2.32,1.49,5.01,2.28,7.77,2.27"/></svg>