<?xml version="1.0" encoding="UTF-8"?><svg id="Layer_1" xmlns="http://www.w3.org/2000/svg" viewBox="0 0 40 40"><defs><style>.cls-1{fill:#fffaf3;}.cls-2{fill:none;stroke:#fffaf3;stroke-miterlimit:10;}</style></defs><circle class="cls-2" cx="20" cy="20" r="19"/><path class="cls-1" d="M30.92,14.51c-.26-.98-1.03-1.75-2.02-2.02-1.78-.48-8.91-.48-8.91-.48,0,0-7.13,0-8.91,.48-.98,.26-1.75,1.03-2.02,2.02-.48,1.78-.48,5.49-.48,5.49,0,0,0,3.71,.48,5.49,.26,.98,1.03,1.75,2.02,2.02,1.78,.48,8.91,.48,8.91,.48,0,0,7.13,0,8.91-.48,.98-.26,1.75-1.03,2.02-2.02,.48-1.78,.48-5.49,.48-5.49,0,0,0-3.71-.48-5.49h0Zm-13.2,8.91v-6.84l5.92,3.42-5.92,3.42h0Z"/></svg>