<?xml version="1.0" encoding="UTF-8"?><svg id="Layer_1" xmlns="http://www.w3.org/2000/svg" viewBox="0 0 220 220"><defs><style>.cls-1,.cls-2,.cls-3{fill:none;}.cls-4,.cls-5{fill:#fff;}.cls-6{fill:#42966a;}.cls-7{fill:#6fafd1;}.cls-2{stroke:#42966a;}.cls-2,.cls-5,.cls-3{stroke-linecap:round;stroke-linejoin:round;}.cls-2,.cls-3{stroke-width:5.2px;}.cls-5{stroke:#a6d49f;stroke-width:4.33px;}.cls-3{stroke:#6fafd1;}</style></defs><path class="cls-1" d="M91.63,87.29c1.39,4.01,1.96,18.18,24.23,23.79-2.91,9.15-9.87,42.5-9.87,42.5-24.61-3.82-51.84-24.57-58.05-56.8,24.85-5.59,43.69-9.49,43.69-9.49Z"/><path class="cls-2" d="M183.07,118.13c6.14-10.99,9.5-23.72,9.16-37.22-1.01-40.16-34.37-71.9-74.53-70.89-40.16,1.01-71.9,34.37-70.89,74.53s34.37,71.9,74.53,70.89"/><line class="cls-2" x1="96.39" y1="66.51" x2="59.98" y2="40.95"/><line class="cls-2" x1="113.32" y1="110.99" x2="101.71" y2="151.74"/><line class="cls-2" x1="147.13" y1="76.77" x2="189.1" y2="66.86"/><line class="cls-2" x1="127.67" y1="11.3" x2="122.59" y2="54.49"/><circle class="cls-2" cx="119.52" cy="82.74" r="28.25"/><g><circle class="cls-6" cx="119.51" cy="74.62" r="7.76"/><g><path class="cls-6" d="M101.71,81.67v.34c0,6.52,6.69,16.36,16.78,16.4v-8.21c0-4.31-4.45-8.53-8.99-8.53h-7.79Z"/><g><path class="cls-6" d="M116.71,106.07c.06,0,.12,0,.17,.02-.06,0-.12,0-.17-.02Z"/><path class="cls-6" d="M118.55,106.17h0Z"/><path class="cls-6" d="M114.92,105.75c.08,.02,.16,.03,.24,.05-.08-.02-.16-.03-.24-.05Z"/></g><path class="cls-6" d="M129.52,81.67c-4.54,0-8.99,4.23-8.99,8.53v8.21c10.09-.04,16.78-9.88,16.78-16.4v-.34h-7.79Z"/><g><path class="cls-6" d="M122.32,106.07c-.06,0-.12,0-.17,.02,.06,0,.12,0,.17-.02Z"/><path class="cls-6" d="M120.48,106.17h0s.01,0,.02,0h0Z"/><path class="cls-6" d="M124.11,105.75c-.08,.02-.16,.03-.24,.05,.08-.02,.16-.03,.24-.05Z"/></g></g></g><g><path class="cls-5" d="M86.74,210H41.77c-.36,0-.72,0-1.08-.02-7.76-.26-14.5-3.44-19.49-8.33-10.48-10.27-11.45-26.86-2.74-38.68l29.59-40.18h32.42l29.59,40.18c8.7,11.82,7.74,28.41-2.74,38.68-4.99,4.89-11.73,8.07-19.49,8.33-.36,.01-.72,.02-1.08,.02Z"/><rect class="cls-5" x="41.53" y="111.56" width="45.44" height="11.23" rx="3.79" ry="3.79"/><path class="cls-5" d="M80.8,111.56H47.71l-11.51-20.55c-1.53-2.73-.93-5.86,.93-7.89,1.69-1.85,4.4-2.38,6.75-1.51l12.85,4.71c4.34,1.59,9.1,1.65,13.48,.15l14.52-4.96c2.17-.74,4.62-.32,6.28,1.25,2.13,2.01,2.9,5.34,1.28,8.24l-11.51,20.55Z"/><line class="cls-5" x1="64.25" y1="100.95" x2="64.25" y2="110.08"/><path class="cls-6" d="M63.98,188.75c-2.5,0-4.69-.49-6.55-1.48-1.86-.99-3.55-2.44-5.06-4.35l3.8-3.8c.95,1.38,2.07,2.5,3.36,3.36,1.28,.86,2.83,1.28,4.64,1.28,1.91,0,3.43-.41,4.57-1.24,1.14-.82,1.7-1.99,1.7-3.51,0-1.15-.3-2.09-.89-2.82-.59-.72-1.38-1.33-2.35-1.8-.97-.48-2.04-.91-3.21-1.28-1.17-.38-2.34-.81-3.51-1.28-1.17-.48-2.24-1.08-3.21-1.8-.97-.72-1.75-1.66-2.35-2.82-.59-1.15-.89-2.62-.89-4.4,0-2.04,.5-3.78,1.51-5.21,1-1.43,2.36-2.53,4.08-3.29,1.71-.76,3.62-1.14,5.73-1.14s3.93,.44,5.68,1.33c1.75,.89,3.18,2.03,4.3,3.41l-3.8,3.8c-.99-1.12-2-1.99-3.04-2.62-1.04-.63-2.13-.94-3.29-.94-1.84,0-3.26,.35-4.25,1.06-.99,.71-1.48,1.77-1.48,3.19,0,1.05,.3,1.9,.91,2.54,.61,.64,1.41,1.19,2.4,1.63,.99,.44,2.07,.86,3.24,1.26,1.17,.4,2.35,.84,3.53,1.33,1.19,.49,2.27,1.13,3.26,1.9,.99,.77,1.79,1.77,2.4,2.99,.61,1.22,.91,2.75,.91,4.59,0,3.1-1.1,5.55-3.28,7.36-2.19,1.81-5.15,2.72-8.87,2.72Zm-.79,4.45v-44.46h3.95v44.46h-3.95Z"/></g><g><rect class="cls-4" x="135.31" y="151.38" width="49.86" height="48.6"/><path class="cls-7" d="M182.57,153.98v43.4h-44.66v-43.4h44.66m2.88-5.2h-50.42c-1.28,0-2.32,1.04-2.32,2.32v49.16c0,1.28,1.04,2.32,2.32,2.32h50.42c1.28,0,2.32-1.04,2.32-2.32v-49.16c0-1.28-1.04-2.32-2.32-2.32h0Z"/></g><path class="cls-3" d="M141.07,142.74c0-1.28,1.04-2.32,2.32-2.32h50.42c1.28,0,2.32,1.04,2.32,2.32v49.16c0,1.28-1.04,2.32-2.32,2.32"/><path class="cls-3" d="M152.37,131.44c0-1.28,1.04-2.32,2.32-2.32h50.42c1.28,0,2.32,1.04,2.32,2.32v49.16c0,1.28-1.04,2.32-2.32,2.32"/><path class="cls-7" d="M166.89,177.57c-.37-.74-.85-1.34-1.45-1.81-.6-.47-1.26-.85-1.98-1.15-.49-.2-.98-.39-1.47-.57v-5.92c.28,.09,.56,.21,.82,.37,.63,.38,1.24,.91,1.84,1.59l2.31-2.31c-.68-.84-1.55-1.53-2.61-2.07-.74-.38-1.53-.62-2.37-.73v-2.77h-2.4v2.79c-.77,.11-1.49,.3-2.16,.6-1.04,.46-1.86,1.12-2.47,1.99-.61,.87-.91,1.92-.91,3.16,0,1.08,.18,1.97,.54,2.67,.36,.7,.83,1.27,1.42,1.71,.59,.44,1.24,.8,1.95,1.09,.54,.22,1.09,.42,1.63,.61v6.6c-.84-.08-1.58-.33-2.22-.75-.78-.52-1.46-1.2-2.04-2.04l-2.31,2.31c.92,1.16,1.94,2.04,3.07,2.64,1.01,.54,2.17,.83,3.49,.89v2.71h2.4v-2.85c1.38-.23,2.53-.72,3.46-1.49,1.33-1.1,1.99-2.59,1.99-4.46,0-1.12-.18-2.05-.55-2.79Zm-7.54-4.54c-.6-.27-1.08-.6-1.45-.99-.37-.39-.55-.9-.55-1.54,0-.86,.3-1.5,.9-1.93,.36-.26,.81-.43,1.35-.54v5.11c-.08-.03-.16-.07-.24-.1Zm3.61,9.66c-.28,.21-.61,.37-.97,.49v-5.44l.04,.02c.59,.29,1.06,.65,1.42,1.09,.36,.44,.54,1.01,.54,1.71,0,.92-.34,1.63-1.03,2.13Z"/></svg>