<?xml version="1.0" encoding="UTF-8"?><svg id="Layer_1" xmlns="http://www.w3.org/2000/svg" viewBox="0 0 220 220"><defs><style>.cls-1,.cls-2,.cls-3,.cls-4{fill:none;}.cls-5{fill:#42966a;}.cls-6,.cls-7{fill:#fffaf3;}.cls-6,.cls-7,.cls-2,.cls-3{stroke-width:5.2px;}.cls-6,.cls-7,.cls-2,.cls-3,.cls-4{stroke-linecap:round;stroke-linejoin:round;}.cls-6,.cls-3{stroke:#6fafd1;}.cls-7,.cls-2{stroke:#42966a;}.cls-4{stroke:#b2dbed;stroke-width:4.33px;}</style></defs><line class="cls-4" x1="119.76" y1="77.34" x2="17.67" y2="77.94"/><line class="cls-4" x1="61.19" y1="95.39" x2="12.73" y2="96.05"/><line class="cls-4" x1="57.69" y1="113.4" x2="10.11" y2="114.11"/><line class="cls-4" x1="49.17" y1="131.62" x2="14.38" y2="132.07"/><line class="cls-4" x1="138.05" y1="59.12" x2="28.35" y2="59.79"/><line class="cls-4" x1="128.61" y1="40.94" x2="49.99" y2="41.58"/><line class="cls-4" x1="89.43" y1="143.25" x2="89.43" y2="188.52"/><line class="cls-4" x1="107.57" y1="136.75" x2="107.57" y2="186.92"/><line class="cls-4" x1="125.7" y1="127.44" x2="125.7" y2="181.36"/><line class="cls-4" x1="143.83" y1="133.82" x2="143.83" y2="168.61"/><line class="cls-4" x1="71.3" y1="135.83" x2="71.3" y2="186.92"/><line class="cls-4" x1="53.17" y1="132.16" x2="53.17" y2="180.85"/><line class="cls-4" x1="35.04" y1="140.42" x2="35.04" y2="167.43"/><path class="cls-5" d="M193.12,92.83c-.59-1.19-1.37-2.16-2.34-2.91-.96-.75-2.02-1.37-3.18-1.85-.79-.33-1.58-.63-2.36-.91v-9.52c.45,.15,.89,.34,1.32,.6,1.01,.61,2,1.46,2.96,2.55l3.71-3.71c-1.09-1.35-2.49-2.46-4.19-3.32-1.2-.61-2.47-1-3.81-1.18v-4.46h-3.85v4.48c-1.24,.17-2.39,.49-3.47,.97-1.67,.74-3,1.81-3.97,3.2-.98,1.4-1.47,3.09-1.47,5.08,0,1.73,.29,3.16,.87,4.29,.58,1.12,1.34,2.04,2.29,2.75,.95,.71,1.99,1.29,3.13,1.76,.87,.36,1.75,.68,2.63,.98v10.61c-1.36-.13-2.55-.53-3.57-1.2-1.25-.84-2.35-1.93-3.28-3.28l-3.71,3.71c1.48,1.86,3.12,3.28,4.94,4.24,1.62,.86,3.49,1.33,5.61,1.43v4.36h3.85v-4.59c2.21-.37,4.08-1.16,5.56-2.4,2.14-1.77,3.2-4.16,3.2-7.18,0-1.8-.3-3.29-.89-4.48Zm-12.12-7.3c-.96-.43-1.74-.96-2.34-1.59-.6-.63-.89-1.45-.89-2.48,0-1.38,.48-2.42,1.45-3.11,.57-.41,1.3-.7,2.17-.86v8.21c-.13-.06-.26-.11-.39-.17Zm5.81,15.54c-.46,.33-.98,.59-1.57,.78v-8.74s.05,.02,.07,.03c.95,.47,1.71,1.05,2.29,1.76,.58,.71,.87,1.62,.87,2.75,0,1.48-.55,2.62-1.66,3.42Z"/><path class="cls-1" d="M62.55,124.82c13.33,22.95,44.01,20.86,55.48-2.15,13.29,5.7,45.38,19.64,45.38,19.64-26.57,54.88-104.62,68.72-143.91,5.46,15.62-7.75,43.05-22.95,43.05-22.95Z"/><path class="cls-1" d="M158.26,113.64c-10.41-4.68-13.93-6.59-28-12.62,5.43-5.07,56.38-57.26,56.38-57.26,4.85,5.88,37.26,39.82,16.47,90.7-19.45-9.14-44.85-20.82-44.85-20.82Z"/><line class="cls-3" x1="89.77" y1="110.55" x2="144.73" y2="52.77"/><line class="cls-3" x1="89.77" y1="110.55" x2="162.34" y2="141.67"/><line class="cls-3" x1="23.27" y1="146.35" x2="90.63" y2="110.38"/><path class="cls-2" d="M209.97,98.44c-.54-21.39-9.45-40.6-23.52-54.58l-1.23,.62-54.96,57.79,72.58,31.12,.04,.02c4.84-10.64,7.4-22.5,7.09-34.97Z"/><path class="cls-3" d="M145,52.49c-14.81-14.23-35.09-22.77-57.24-22.21C43.72,31.38,8.92,67.96,10.03,112c1.1,44.03,37.69,78.83,81.72,77.73,31.93-.8,59-20.26,71.06-47.68"/><circle class="cls-6" cx="89.75" cy="110" r="30.98"/><circle class="cls-7" cx="89.75" cy="110" r="30.98"/><circle class="cls-5" cx="90" cy="101.35" r="8.51"/><g><path class="cls-5" d="M70.48,109.09v.37c0,7.14,7.34,17.94,18.4,17.98v-9c0-4.72-4.88-9.36-9.86-9.36h-8.54Z"/><g><path class="cls-5" d="M86.93,135.83c.06,0,.13,.01,.19,.02-.06,0-.13-.01-.19-.02Z"/><path class="cls-5" d="M88.95,135.95h0Z"/><path class="cls-5" d="M84.97,135.49c.09,.02,.17,.04,.26,.06-.09-.02-.17-.04-.26-.06Z"/></g><path class="cls-5" d="M100.98,109.09c-4.97,0-9.86,4.63-9.86,9.36v9c11.07-.04,18.4-10.83,18.4-17.98v-.37h-8.54Z"/><g><path class="cls-5" d="M93.07,135.83c-.06,0-.13,.01-.19,.02,.06,0,.13-.01,.19-.02Z"/><path class="cls-5" d="M91.06,135.95h0s.01,0,.02,0h-.01Z"/><path class="cls-5" d="M95.04,135.49c-.09,.02-.17,.04-.26,.06,.09-.02,.17-.04,.26-.06Z"/></g></g></svg>