<?xml version="1.0" encoding="UTF-8"?><svg id="Layer_3" xmlns="http://www.w3.org/2000/svg" viewBox="0 0 220 220"><defs><style>.cls-1{fill:#42966a;}.cls-2{stroke:#42966a;}.cls-2,.cls-3,.cls-4,.cls-5{fill:none;stroke-linecap:round;stroke-linejoin:round;stroke-width:4.63px;}.cls-3{stroke:#6fafd1;}.cls-4{stroke:#a6d49f;}.cls-5{stroke:#b2dbed;}</style></defs><g><path class="cls-1" d="M75.05,159.29v-28.94h4.76v28.94h-4.76Zm3.27-24.6v-4.34h16v4.34h-16Zm0,11.91v-4.18h14.8v4.18h-14.8Zm0,12.69v-4.34h16.21v4.34h-16.21Z"/><path class="cls-1" d="M98.02,134.69v-4.34h23.61v4.34h-23.61Zm9.43,24.6v-28.12h4.76v28.12h-4.76Z"/><path class="cls-1" d="M125.82,159.29v-28.94h4.76v28.94h-4.76Zm3.27-24.6v-4.34h15.42v4.34h-15.42Zm0,12.2v-4.34h14.72v4.34h-14.72Z"/></g><path class="cls-4" d="M51.55,163.63h0c-16.85,0-30.51-13.66-30.51-30.51V59.56"/><path class="cls-4" d="M167.71,163.63h0c16.85,0,30.51-13.66,30.51-30.51V59.56"/><path class="cls-3" d="M54.42,123.82c-5.23-2.82-8.78-8.35-8.78-14.71v-21.33"/><path class="cls-3" d="M165.13,123.76c5.07-2.8,8.5-8.21,8.5-14.41v-21.57"/><path class="cls-3" d="M109.78,84.4V38.8"/><path class="cls-5" d="M78.16,94.85v-31.66"/><path class="cls-5" d="M141.4,94.85v-31.66"/><circle class="cls-5" cx="78.16" cy="51.78" r="11.41"/><circle class="cls-5" cx="141.4" cy="51.78" r="11.41"/><circle class="cls-3" cx="173.63" cy="76.37" r="11.41"/><circle class="cls-4" cx="198.22" cy="48.15" r="11.41"/><circle class="cls-3" cx="45.63" cy="76.37" r="11.41"/><circle class="cls-4" cx="21.04" cy="48.15" r="11.41"/><circle class="cls-3" cx="109.78" cy="27.39" r="11.41"/><circle class="cls-2" cx="109.78" cy="144.82" r="59.2"/></svg>