<?xml version="1.0" encoding="UTF-8"?><svg id="Layer_1" xmlns="http://www.w3.org/2000/svg" viewBox="0 0 220 220"><defs><style>.cls-1{stroke:#42966a;}.cls-1,.cls-2,.cls-3{fill:none;}.cls-1,.cls-2,.cls-3,.cls-4,.cls-5{stroke-linecap:round;stroke-linejoin:round;stroke-width:3.77px;}.cls-6{fill:#42966a;}.cls-2,.cls-5{stroke:#a6d49f;}.cls-3,.cls-4{stroke:#6fafd1;}.cls-4,.cls-5{fill:#fff;}</style></defs><line class="cls-5" x1="123.94" y1="92.45" x2="160.38" y2="70.74"/><line class="cls-5" x1="123.94" y1="104.2" x2="160.04" y2="82.69"/><line class="cls-5" x1="123.94" y1="115.95" x2="160.38" y2="94.24"/><line class="cls-5" x1="140.51" y1="117.82" x2="160.38" y2="105.99"/><line class="cls-5" x1="123.94" y1="57.2" x2="142.08" y2="46.39"/><line class="cls-5" x1="123.94" y1="68.95" x2="160.38" y2="47.24"/><line class="cls-5" x1="123.94" y1="80.7" x2="160.38" y2="58.99"/><rect class="cls-2" x="123.94" y="46.39" width="36.44" height="71.43"/><rect class="cls-2" x="35.04" y="68.43" width="33.68" height="100.23"/><polyline class="cls-2" points="90.14 168.66 79.49 168.66 79.49 57.41 113.17 57.41 113.17 117.68"/><line class="cls-2" x1="35.04" y1="60.13" x2="160.38" y2="20.35"/><polyline class="cls-2" points="152.61 14.25 162.99 19.63 157.72 29.97"/><polyline class="cls-1" points="154.26 183.24 90.14 183.24 90.14 117.82 188.09 117.82 188.09 158.46"/><path class="cls-6" d="M120.72,153.37c-.56-1.11-1.28-2.02-2.18-2.72-.9-.71-1.89-1.28-2.97-1.73-.74-.31-1.47-.59-2.21-.85v-8.9c.42,.14,.84,.32,1.24,.56,.95,.57,1.87,1.37,2.77,2.39l3.47-3.47c-1.02-1.26-2.33-2.3-3.92-3.11-1.12-.57-2.31-.94-3.56-1.1v-4.17h-3.6v4.19c-1.16,.16-2.24,.46-3.24,.9-1.56,.69-2.8,1.69-3.72,3-.92,1.31-1.37,2.89-1.37,4.75,0,1.62,.27,2.96,.81,4.01,.54,1.05,1.25,1.91,2.14,2.57,.89,.66,1.86,1.21,2.93,1.64,.82,.33,1.64,.63,2.45,.91v9.92c-1.27-.12-2.38-.49-3.33-1.13-1.17-.78-2.19-1.8-3.06-3.06l-3.47,3.47c1.38,1.74,2.92,3.06,4.62,3.96,1.51,.8,3.26,1.25,5.25,1.33v4.07h3.6v-4.29c2.07-.35,3.81-1.09,5.2-2.24,2-1.65,2.99-3.89,2.99-6.71,0-1.68-.28-3.08-.83-4.19Zm-11.33-6.82c-.9-.41-1.63-.9-2.18-1.49-.56-.59-.83-1.36-.83-2.32,0-1.29,.45-2.26,1.35-2.91,.54-.38,1.21-.65,2.03-.81v7.67c-.12-.05-.24-.1-.36-.16Zm5.43,14.53c-.43,.31-.92,.55-1.46,.73v-8.17s.05,.02,.07,.03c.89,.44,1.6,.98,2.14,1.64,.54,.66,.81,1.52,.81,2.57,0,1.38-.52,2.45-1.55,3.2Z"/><polygon class="cls-4" points="172.76 190.56 183.65 214.25 188.73 205.44 198.74 207.22 187.36 182.45 172.76 190.56"/><polygon class="cls-4" points="155.93 182.11 144.39 207.22 154.4 205.44 159.48 214.25 170.25 190.83 155.93 182.11"/><line class="cls-1" x1="132.2" y1="132.2" x2="175.23" y2="132.2"/><line class="cls-1" x1="132.2" y1="142.76" x2="175.23" y2="142.76"/><line class="cls-1" x1="132.2" y1="153.32" x2="147.16" y2="153.32"/><path class="cls-4" d="M163.7,153.54l2.94-2.6c2.07-1.83,5.13-1.97,7.36-.34l3.17,2.32c.73,.53,1.56,.89,2.45,1.05l3.87,.68c2.72,.48,4.74,2.79,4.85,5.54l.16,3.92c.04,.9,.28,1.78,.71,2.57l1.88,3.45c1.32,2.42,.77,5.44-1.31,7.25l-2.97,2.57c-.68,.59-1.21,1.33-1.56,2.16l-1.53,3.62c-1.07,2.54-3.77,4-6.48,3.49l-3.86-.71c-.88-.16-1.79-.12-2.66,.12l-3.78,1.06c-2.66,.75-5.48-.46-6.77-2.89l-1.85-3.46c-.42-.79-1.02-1.48-1.75-2l-3.19-2.29c-2.24-1.61-3.06-4.56-1.96-7.1l1.56-3.6c.36-.83,.52-1.72,.47-2.62l-.2-3.92c-.14-2.76,1.66-5.24,4.33-5.96l3.79-1.03c.87-.24,1.67-.67,2.34-1.26Z"/><circle class="cls-3" cx="171.57" cy="170.34" r="9.9"/></svg>