<?xml version="1.0" encoding="UTF-8"?><svg id="Layer_1" xmlns="http://www.w3.org/2000/svg" viewBox="0 0 220 220"><defs><style>.cls-1,.cls-2,.cls-3,.cls-4,.cls-5,.cls-6,.cls-7,.cls-8{fill:none;}.cls-2,.cls-9,.cls-3,.cls-4,.cls-5,.cls-10,.cls-11,.cls-6,.cls-7,.cls-8{stroke-linecap:round;stroke-linejoin:round;}.cls-2,.cls-4,.cls-6{stroke:#6fafd1;}.cls-2,.cls-10,.cls-11{stroke-width:3.79px;}.cls-12,.cls-10,.cls-11{fill:#fff;}.cls-13{fill:#a6d49f;}.cls-14{fill:#b2dbed;}.cls-15{fill:#42966a;}.cls-16{fill:#6fafd1;}.cls-9{fill:#fffaf3;}.cls-9,.cls-3,.cls-4,.cls-5,.cls-6,.cls-7,.cls-8{stroke-width:4.54px;}.cls-9,.cls-5{stroke:#42966a;}.cls-3{stroke-dasharray:0 0 9.4 9.4;}.cls-3,.cls-11,.cls-8{stroke:#b2dbed;}.cls-4{stroke-dasharray:0 0 7.47 7.47;}.cls-10,.cls-7{stroke:#a6d49f;}</style></defs><g><line class="cls-2" x1="116.37" y1="129.14" x2="116.37" y2="154.55"/><line class="cls-2" x1="102.21" y1="123.02" x2="102.21" y2="164.46"/><line class="cls-2" x1="88.05" y1="113.97" x2="88.05" y2="170.54"/><line class="cls-2" x1="73.89" y1="113.97" x2="73.89" y2="170.54"/><line class="cls-2" x1="59.73" y1="113.97" x2="59.73" y2="170.54"/><line class="cls-2" x1="45.57" y1="125.88" x2="45.57" y2="165.87"/><line class="cls-2" x1="31.41" y1="133.08" x2="31.41" y2="155.67"/></g><path class="cls-1" d="M51.64,121.58c10.4,17.91,34.35,16.29,43.31-1.68,10.37,4.45,35.42,15.33,35.42,15.33-20.74,42.84-81.67,53.64-112.33,4.26,12.19-6.05,33.61-17.91,33.61-17.91Z"/><g><line class="cls-11" x1="16.99" y1="84.24" x2="98.96" y2="82.77"/><line class="cls-11" x1="13.94" y1="98.22" x2="52.06" y2="97.72"/><line class="cls-11" x1="10.64" y1="112.21" x2="48.77" y2="111.91"/><line class="cls-11" x1="13.94" y1="126.19" x2="43.69" y2="125.95"/><line class="cls-11" x1="41.99" y1="56.27" x2="102.39" y2="55.08"/><line class="cls-11" x1="25.09" y1="70.26" x2="111.73" y2="68.92"/></g><path class="cls-1" d="M89.41,92.37c-2.09-2.56-7.6-5.67-15.03-6.58-10.51-1.81-33.75,10.8-22.92,36.93-4.77-.56-33.42,16.78-33.42,16.78C-8.27,90.82,34.48,42.91,81.67,48.34c.04-.24,0,0,0,0,6.58,.52,25.71,6.86,34.13,16.99-6.73,7.95-26.38,27.03-26.38,27.03Z"/><line class="cls-10" x1="96.47" y1="106.7" x2="130.17" y2="86.63"/><line class="cls-10" x1="98.51" y1="121.65" x2="134.44" y2="100.24"/><line class="cls-10" x1="114.5" y1="128.28" x2="134.49" y2="116.37"/><line class="cls-10" x1="90.82" y1="93.91" x2="123.46" y2="74.46"/><path class="cls-1" d="M94.95,119.9c1.56-3.44,4.84-17.17-5.54-27.53,4.13-4.06,26.25-27.58,26.25-27.58,3.9,4.49,29.89,30.31,14.7,70.44-15.37-6.73-35.42-15.33-35.42-15.33Z"/><g><line class="cls-6" x1="88.05" y1="170.6" x2="92.6" y2="170.6"/><line class="cls-4" x1="100.07" y1="170.6" x2="126.21" y2="170.6"/><line class="cls-6" x1="129.95" y1="170.6" x2="134.49" y2="170.6"/></g><g><line class="cls-8" x1="135.8" y1="53.9" x2="131.26" y2="53.9"/><line class="cls-3" x1="121.86" y1="53.9" x2="107.76" y2="53.9"/><line class="cls-8" x1="103.06" y1="53.9" x2="98.51" y2="53.9"/></g><g><line class="cls-7" x1="156.91" y1="110.01" x2="152.36" y2="110.01"/><line class="cls-7" x1="142.12" y1="110.01" x2="137.58" y2="110.01"/></g><line class="cls-5" x1="72.89" y1="110.44" x2="115.79" y2="65.34"/><line class="cls-5" x1="72.89" y1="110.44" x2="129.54" y2="134.73"/><line class="cls-5" x1="20.99" y1="138.39" x2="73.56" y2="110.31"/><circle class="cls-9" cx="72.88" cy="110.01" r="24.18"/><g><circle class="cls-15" cx="73.07" cy="103.26" r="6.64"/><g><path class="cls-15" d="M57.84,109.3v.29c0,5.58,5.73,14,14.36,14.03v-7.02c0-3.69-3.81-7.3-7.69-7.3h-6.67Z"/><g><path class="cls-15" d="M70.68,130.17s.1,0,.15,.01c-.05,0-.1,0-.15-.01Z"/><path class="cls-15" d="M72.25,130.27h0Z"/><path class="cls-15" d="M69.14,129.91c.07,.02,.13,.03,.2,.04-.07-.01-.14-.03-.2-.04Z"/></g><path class="cls-15" d="M81.64,109.3c-3.88,0-7.69,3.62-7.69,7.3v7.02c8.64-.03,14.36-8.46,14.36-14.03v-.29h-6.67Z"/><g><path class="cls-15" d="M75.47,130.17s-.1,0-.15,.01c.05,0,.1,0,.15-.01Z"/><path class="cls-15" d="M73.9,130.27h0s0,0,.01,0h0Z"/><path class="cls-15" d="M77.01,129.91c-.07,.02-.13,.03-.2,.04,.07-.01,.14-.03,.2-.04Z"/></g></g></g><g><rect class="cls-12" x="146.93" y="42" width="27.52" height="26.79"/><path class="cls-14" d="M172.18,44.27v22.24h-22.98v-22.24h22.98m3.19-4.54h-29.36c-.75,0-1.35,.6-1.35,1.35v28.63c0,.75,.61,1.35,1.35,1.35h29.36c.75,0,1.35-.61,1.35-1.35v-28.63c0-.75-.61-1.35-1.35-1.35h0Z"/></g><path class="cls-8" d="M149.53,36.21c0-.75,.61-1.35,1.35-1.35h29.36c.75,0,1.35,.61,1.35,1.35v28.63c0,.75-.61,1.35-1.35,1.35"/><path class="cls-8" d="M156.11,29.63c0-.75,.61-1.35,1.35-1.35h29.36c.75,0,1.35,.61,1.35,1.35v28.63c0,.75-.61,1.35-1.35,1.35"/><path class="cls-14" d="M164.56,56.5c-.22-.43-.5-.78-.85-1.06-.35-.27-.73-.5-1.15-.67-.29-.12-.57-.23-.86-.33v-3.45c.16,.05,.32,.12,.48,.22,.37,.22,.72,.53,1.07,.93l1.34-1.34c-.4-.49-.9-.89-1.52-1.2-.43-.22-.89-.36-1.38-.43v-1.61h-1.4v1.62c-.45,.06-.87,.18-1.26,.35-.61,.27-1.08,.65-1.44,1.16-.36,.51-.53,1.12-.53,1.84,0,.63,.1,1.15,.31,1.55,.21,.41,.49,.74,.83,.99,.34,.26,.72,.47,1.13,.64,.32,.13,.63,.25,.95,.35v3.84c-.49-.05-.92-.19-1.29-.44-.45-.3-.85-.7-1.19-1.19l-1.34,1.34c.53,.67,1.13,1.19,1.79,1.54,.59,.31,1.26,.48,2.03,.52v1.58h1.4v-1.66c.8-.14,1.48-.42,2.02-.87,.77-.64,1.16-1.51,1.16-2.6,0-.65-.11-1.19-.32-1.62Zm-4.39-2.64c-.35-.16-.63-.35-.85-.58-.22-.23-.32-.53-.32-.9,0-.5,.17-.88,.52-1.13,.21-.15,.47-.25,.79-.31v2.97s-.09-.04-.14-.06Zm2.1,5.63c-.17,.12-.36,.21-.57,.28v-3.17h.03c.34,.18,.62,.39,.83,.65,.21,.26,.31,.59,.31,.99,0,.54-.2,.95-.6,1.24Z"/><g><g><rect class="cls-12" x="168.76" y="102.34" width="27.52" height="26.79"/><path class="cls-13" d="M194.01,104.61v22.24h-22.98v-22.24h22.98m3.19-4.54h-29.36c-.75,0-1.35,.61-1.35,1.35v28.63c0,.75,.61,1.35,1.35,1.35h29.36c.75,0,1.35-.61,1.35-1.35v-28.63c0-.75-.61-1.35-1.35-1.35h0Z"/></g><path class="cls-7" d="M171.35,96.55c0-.75,.61-1.35,1.35-1.35h29.36c.75,0,1.35,.61,1.35,1.35v28.63c0,.75-.61,1.35-1.35,1.35"/><path class="cls-7" d="M177.93,89.97c0-.75,.61-1.35,1.35-1.35h29.36c.75,0,1.35,.61,1.35,1.35v28.63c0,.75-.61,1.35-1.35,1.35"/><path class="cls-13" d="M186.39,116.84c-.22-.43-.5-.78-.85-1.06-.35-.27-.73-.5-1.15-.67-.29-.12-.57-.23-.86-.33v-3.45c.16,.05,.32,.12,.48,.22,.37,.22,.72,.53,1.07,.93l1.34-1.34c-.4-.49-.9-.89-1.52-1.2-.43-.22-.89-.36-1.38-.43v-1.61h-1.4v1.62c-.45,.06-.87,.18-1.26,.35-.61,.27-1.08,.65-1.44,1.16-.36,.51-.53,1.12-.53,1.84,0,.63,.1,1.15,.31,1.55,.21,.41,.49,.74,.83,.99,.34,.26,.72,.47,1.13,.64,.32,.13,.63,.25,.95,.35v3.84c-.49-.05-.92-.19-1.29-.44-.45-.3-.85-.7-1.19-1.19l-1.34,1.34c.53,.67,1.13,1.19,1.79,1.54,.59,.31,1.26,.48,2.03,.52v1.58h1.4v-1.66c.8-.14,1.48-.42,2.02-.87,.77-.64,1.16-1.51,1.16-2.6,0-.65-.11-1.19-.32-1.62Zm-4.39-2.64c-.35-.16-.63-.35-.85-.58-.22-.23-.32-.53-.32-.9,0-.5,.17-.88,.52-1.13,.21-.15,.47-.25,.79-.31v2.97s-.09-.04-.14-.06Zm2.1,5.63c-.17,.12-.36,.21-.57,.28v-3.17h.03c.34,.18,.62,.39,.83,.65,.21,.26,.31,.59,.31,.99,0,.54-.2,.95-.6,1.24Z"/></g><g><g><rect class="cls-12" x="145.71" y="162.93" width="27.52" height="26.79"/><path class="cls-16" d="M170.96,165.2v22.24h-22.98v-22.24h22.98m3.19-4.54h-29.36c-.75,0-1.35,.61-1.35,1.35v28.63c0,.75,.61,1.35,1.35,1.35h29.36c.75,0,1.35-.61,1.35-1.35v-28.63c0-.75-.61-1.35-1.35-1.35h0Z"/></g><path class="cls-6" d="M148.3,157.14c0-.75,.61-1.35,1.35-1.35h29.36c.75,0,1.35,.61,1.35,1.35v28.63c0,.75-.61,1.35-1.35,1.35"/><path class="cls-6" d="M154.89,150.56c0-.75,.61-1.35,1.35-1.35h29.36c.75,0,1.35,.61,1.35,1.35v28.63c0,.75-.61,1.35-1.35,1.35"/><path class="cls-16" d="M163.34,177.42c-.22-.43-.5-.78-.85-1.06-.35-.27-.73-.5-1.15-.67-.29-.12-.57-.23-.86-.33v-3.45c.16,.05,.32,.12,.48,.22,.37,.22,.72,.53,1.07,.93l1.34-1.34c-.4-.49-.9-.89-1.52-1.2-.43-.22-.89-.36-1.38-.43v-1.61h-1.4v1.62c-.45,.06-.87,.18-1.26,.35-.61,.27-1.08,.65-1.44,1.16-.36,.51-.53,1.12-.53,1.84,0,.63,.1,1.15,.31,1.55,.21,.41,.49,.74,.83,.99,.34,.26,.72,.47,1.13,.64,.32,.13,.63,.25,.95,.35v3.84c-.49-.05-.92-.19-1.29-.44-.45-.3-.85-.7-1.19-1.19l-1.34,1.34c.53,.67,1.13,1.19,1.79,1.54,.59,.31,1.26,.48,2.03,.52v1.58h1.4v-1.66c.8-.14,1.48-.42,2.02-.87,.77-.64,1.16-1.51,1.16-2.6,0-.65-.11-1.19-.32-1.62Zm-4.39-2.64c-.35-.16-.63-.35-.85-.58-.22-.23-.32-.53-.32-.9,0-.5,.17-.88,.52-1.13,.21-.15,.47-.25,.79-.31v2.97s-.09-.04-.14-.06Zm2.1,5.63c-.17,.12-.36,.21-.57,.28v-3.17h.03c.34,.18,.62,.39,.83,.65,.21,.26,.31,.59,.31,.99,0,.54-.2,.95-.6,1.24Z"/></g><circle class="cls-5" cx="72.88" cy="110.01" r="62.25"/></svg>