<?xml version="1.0" encoding="UTF-8"?><svg id="Layer_1" xmlns="http://www.w3.org/2000/svg" viewBox="0 0 220 220"><defs><style>.cls-1{fill:#fff;}.cls-2{fill:#a6d49f;}.cls-3{fill:#b2dbed;}.cls-4{fill:#42966a;}.cls-5{fill:#6fafd1;}.cls-6,.cls-7,.cls-8,.cls-9{fill:none;stroke-linecap:round;stroke-linejoin:round;}.cls-6,.cls-7,.cls-9{stroke:#42966a;}.cls-6,.cls-8,.cls-9{stroke-width:4.81px;}.cls-7{stroke-width:2.41px;}.cls-8{stroke:#6fafd1;}.cls-9{fill-rule:evenodd;}</style></defs><circle class="cls-4" cx="109.99" cy="36.42" r="5"/><g><path class="cls-4" d="M98.51,40.97v.22c0,4.2,4.31,10.55,10.82,10.57v-5.29c0-2.78-2.87-5.5-5.79-5.5h-5.02Z"/><path class="cls-4" d="M116.44,40.97c-2.92,0-5.79,2.72-5.79,5.5v5.29c6.5-.02,10.82-6.37,10.82-10.57v-.22h-5.02Z"/></g><polyline class="cls-9" points="31.57 28.51 31.57 22.08 188.41 22.08 188.41 28.51"/><line class="cls-6" x1="109.98" y1="61.1" x2="109.98" y2="177.03"/><line class="cls-7" x1="188.37" y1="29.47" x2="181.44" y2="66.37"/><line class="cls-7" x1="188.38" y1="29.12" x2="195.38" y2="66.37"/><line class="cls-7" x1="31.53" y1="29.47" x2="24.6" y2="66.37"/><line class="cls-7" x1="31.53" y1="29.12" x2="38.54" y2="66.37"/><rect class="cls-8" x="73.72" y="187.48" width="72.54" height="10.45"/><rect class="cls-8" x="84.12" y="177.03" width="51.74" height="10.45"/><circle class="cls-4" cx="31.57" cy="29.29" r="2.95"/><circle class="cls-4" cx="188.43" cy="29.29" r="2.95"/><circle class="cls-6" cx="109.99" cy="41.59" r="19.51"/><path class="cls-6" d="M166.86,113.32h43.14v.74c0,11.91-9.66,21.57-21.57,21.57h0c-11.91,0-21.57-9.66-21.57-21.57v-.74Z"/><g><rect class="cls-1" x="171.59" y="73.33" width="33.68" height="32.8"/><path class="cls-2" d="M202.86,75.73v27.98h-28.87v-27.98h28.87m3.19-4.81h-35.24c-.9,0-1.62,.73-1.62,1.62v34.36c0,.9,.73,1.62,1.62,1.62h35.24c.9,0,1.62-.73,1.62-1.62v-34.36c0-.9-.73-1.62-1.62-1.62h0Z"/></g><path class="cls-4" d="M193.97,91.3c-.31-.61-.71-1.12-1.21-1.51-.5-.39-1.05-.71-1.65-.96-.41-.17-.82-.33-1.22-.47v-4.93c.23,.08,.46,.18,.69,.31,.52,.32,1.03,.76,1.53,1.32l1.92-1.92c-.57-.7-1.29-1.27-2.17-1.72-.62-.32-1.28-.52-1.97-.61v-2.31h-1.99v2.32c-.64,.09-1.24,.25-1.8,.5-.86,.38-1.55,.93-2.06,1.66-.51,.72-.76,1.6-.76,2.63,0,.9,.15,1.64,.45,2.22,.3,.58,.69,1.06,1.18,1.42,.49,.37,1.03,.67,1.62,.91,.45,.19,.91,.35,1.36,.51v5.49c-.7-.07-1.32-.27-1.85-.62-.65-.43-1.21-1-1.7-1.7l-1.92,1.92c.76,.96,1.62,1.7,2.56,2.19,.84,.45,1.81,.69,2.9,.74v2.25h1.99v-2.38c1.15-.19,2.11-.6,2.88-1.24,1.11-.91,1.66-2.15,1.66-3.72,0-.93-.15-1.7-.46-2.32Zm-6.27-3.78c-.5-.22-.9-.5-1.21-.82-.31-.32-.46-.75-.46-1.28,0-.71,.25-1.25,.75-1.61,.3-.21,.67-.36,1.12-.45v4.25c-.07-.03-.13-.06-.2-.09Zm3,8.04c-.24,.17-.51,.31-.81,.41v-4.53l.04,.02c.49,.24,.89,.54,1.18,.91,.3,.37,.45,.84,.45,1.42,0,.76-.29,1.35-.86,1.77Z"/><g><path class="cls-6" d="M10,113.32H53.14v.74c0,11.91-9.66,21.57-21.57,21.57h0c-11.91,0-21.57-9.66-21.57-21.57v-.74Z"/><g><rect class="cls-1" x="14.73" y="73.33" width="33.68" height="32.8"/><path class="cls-3" d="M46,75.73v27.98H17.14v-27.98h28.87m3.19-4.81H13.95c-.9,0-1.62,.73-1.62,1.62v34.36c0,.9,.73,1.62,1.62,1.62H49.19c.9,0,1.62-.73,1.62-1.62v-34.36c0-.9-.73-1.62-1.62-1.62h0Z"/></g></g><path class="cls-5" d="M37.1,91.3c-.31-.61-.71-1.12-1.21-1.51-.5-.39-1.05-.71-1.65-.96-.41-.17-.82-.33-1.22-.47v-4.93c.23,.08,.46,.18,.69,.31,.52,.32,1.03,.76,1.53,1.32l1.92-1.92c-.57-.7-1.29-1.27-2.17-1.72-.62-.32-1.28-.52-1.97-.61v-2.31h-1.99v2.32c-.64,.09-1.24,.25-1.8,.5-.86,.38-1.55,.93-2.06,1.66-.51,.72-.76,1.6-.76,2.63,0,.9,.15,1.64,.45,2.22,.3,.58,.69,1.06,1.18,1.42,.49,.37,1.03,.67,1.62,.91,.45,.19,.91,.35,1.36,.51v5.49c-.7-.07-1.32-.27-1.85-.62-.65-.43-1.21-1-1.7-1.7l-1.92,1.92c.76,.96,1.62,1.7,2.56,2.19,.84,.45,1.81,.69,2.9,.74v2.25h1.99v-2.38c1.15-.19,2.11-.6,2.88-1.24,1.11-.91,1.66-2.15,1.66-3.72,0-.93-.15-1.7-.46-2.32Zm-6.27-3.78c-.5-.22-.9-.5-1.21-.82-.31-.32-.46-.75-.46-1.28,0-.71,.25-1.25,.75-1.61,.3-.21,.67-.36,1.12-.45v4.25c-.07-.03-.13-.06-.2-.09Zm3,8.04c-.24,.17-.51,.31-.81,.41v-4.53l.04,.02c.49,.24,.89,.54,1.18,.91,.3,.37,.45,.84,.45,1.42,0,.76-.29,1.35-.86,1.77Z"/></svg>