<?xml version="1.0" encoding="UTF-8"?><svg id="Layer_1" xmlns="http://www.w3.org/2000/svg" viewBox="0 0 220 220"><defs><style>.cls-1,.cls-2,.cls-3,.cls-4{fill:none;}.cls-2{stroke-width:3.75px;}.cls-2,.cls-5,.cls-3,.cls-4{stroke-linecap:round;stroke-linejoin:round;}.cls-2,.cls-4{stroke:#a6d49f;}.cls-6{fill:#42966a;}.cls-7{fill:#6fafd1;}.cls-5{fill:#fff;stroke:#42966a;}.cls-5,.cls-3,.cls-4{stroke-width:4.5px;}.cls-3{stroke:#6fafd1;}</style></defs><line class="cls-2" x1="133.34" y1="138.71" x2="116.26" y2="148.88"/><line class="cls-2" x1="146.9" y1="114.39" x2="91.29" y2="147.52"/><line class="cls-2" x1="157.32" y1="91.93" x2="84.49" y2="135.34"/><line class="cls-2" x1="141.58" y1="85.07" x2="77.69" y2="123.15"/><line class="cls-2" x1="122.22" y1="80.37" x2="70.89" y2="110.96"/><line class="cls-2" x1="95.38" y1="80.12" x2="64.09" y2="98.77"/><line class="cls-2" x1="208.33" y1="161.98" x2="180.01" y2="178.85"/><line class="cls-2" x1="209.38" y1="169.47" x2="194.33" y2="178.44"/><line class="cls-2" x1="206.82" y1="154.76" x2="165.7" y2="179.26"/><line class="cls-2" x1="202.44" y1="141.13" x2="142.49" y2="176.85"/><line class="cls-2" x1="196.26" y1="128.57" x2="138.04" y2="163.27"/><line class="cls-2" x1="188.28" y1="117.08" x2="128.03" y2="152.99"/><line class="cls-2" x1="178.47" y1="106.69" x2="138" y2="130.81"/><line class="cls-2" x1="166.77" y1="97.42" x2="151.65" y2="106.43"/><line class="cls-2" x1="204.86" y1="147.81" x2="152.62" y2="178.94"/><line class="cls-2" x1="199.46" y1="134.78" x2="140.77" y2="169.76"/><line class="cls-2" x1="192.69" y1="122.57" x2="133.31" y2="157.96"/><line class="cls-2" x1="183.61" y1="111.75" x2="131.01" y2="143.09"/><line class="cls-2" x1="172.86" y1="101.91" x2="145.65" y2="118.13"/><g><polygon class="cls-3" points="109.84 23.34 83.3 67.76 136.39 67.76 109.84 23.34"/><path class="cls-7" d="M109.84,62.45c-.7,0-1.27-.23-1.71-.7-.45-.47-.67-1.04-.67-1.71s.22-1.27,.67-1.73c.44-.46,1.01-.68,1.71-.68s1.26,.23,1.71,.68c.44,.46,.67,1.03,.67,1.73s-.22,1.24-.67,1.71c-.45,.47-1.02,.7-1.71,.7Zm-1.37-7.88l-.49-15.89h3.75l-.49,15.89h-2.77Z"/></g><line class="cls-4" x1="60.02" y1="92.39" x2="93.54" y2="152.46"/><line class="cls-4" x1="159.68" y1="92.38" x2="126.17" y2="152.46"/><path class="cls-4" d="M109.86,148.13c17.47,0,31.75,13.62,32.83,30.81h67.03c0-55.15-44.71-99.86-99.86-99.86S10,123.79,10,178.94H77.03c1.08-17.2,15.36-30.81,32.83-30.81Z"/><polygon class="cls-5" points="102 178.71 109.84 119.45 117.72 178.71 102 178.71"/><circle class="cls-5" cx="109.86" cy="179.97" r="16.7"/><path class="cls-1" d="M210,178l-68.76,1.97s1.16-17.46-16.71-28.03l34.44-59.55c9.69,6.18,48.8,27.9,51.03,85.61Z"/><g><circle class="cls-6" cx="109.86" cy="175.26" r="4.55"/><g><path class="cls-6" d="M99.41,179.4v.2c0,3.82,3.93,9.6,9.85,9.62v-4.81c0-2.53-2.61-5.01-5.27-5.01h-4.57Z"/><path class="cls-6" d="M115.73,179.4c-2.66,0-5.27,2.48-5.27,5.01v4.81c5.92-.02,9.85-5.8,9.85-9.62v-.2h-4.57Z"/></g></g><line class="cls-2" x1="160.24" y1="93.19" x2="157.11" y2="95.06"/></svg>