<?xml version="1.0" encoding="UTF-8"?><svg id="Layer_3" xmlns="http://www.w3.org/2000/svg" viewBox="0 0 220 220"><defs><style>.cls-1{stroke:#42966a;}.cls-1,.cls-2,.cls-3,.cls-4,.cls-5{stroke-width:3.82px;}.cls-1,.cls-2,.cls-3,.cls-4,.cls-5,.cls-6{stroke-linecap:round;stroke-linejoin:round;}.cls-1,.cls-2,.cls-3,.cls-4,.cls-6{fill:none;}.cls-7,.cls-5{fill:#fff;}.cls-8{fill:#a6d49f;}.cls-9{fill:#42966a;}.cls-2,.cls-5{stroke:#6fafd1;}.cls-3,.cls-6{stroke:#a6d49f;}.cls-4{stroke:#b2dbed;}.cls-6{stroke-width:4.58px;}</style></defs><g><polyline class="cls-1" points="166.86 97.8 102.61 97.8 102.61 31.47 200.74 31.47 200.74 72.68"/><path class="cls-9" d="M133.25,67.51c-.56-1.13-1.29-2.05-2.19-2.76-.9-.72-1.9-1.3-2.98-1.76-.74-.31-1.48-.6-2.21-.87v-9.02c.42,.14,.84,.32,1.24,.57,.95,.58,1.87,1.39,2.78,2.42l3.47-3.52c-1.02-1.28-2.33-2.33-3.93-3.15-1.12-.58-2.31-.95-3.56-1.12v-4.22h-3.61v4.25c-1.16,.16-2.24,.46-3.25,.92-1.56,.7-2.81,1.71-3.72,3.04-.92,1.32-1.38,2.93-1.38,4.82,0,1.64,.27,3,.81,4.07,.54,1.07,1.26,1.93,2.14,2.6,.89,.67,1.86,1.23,2.93,1.67,.82,.34,1.64,.64,2.46,.93v10.06c-1.27-.12-2.39-.5-3.34-1.14-1.17-.79-2.2-1.83-3.07-3.11l-3.47,3.52c1.38,1.77,2.93,3.11,4.63,4.02,1.52,.82,3.27,1.26,5.26,1.35v4.13h3.61v-4.35c2.07-.35,3.82-1.1,5.21-2.27,2-1.67,3-3.94,3-6.81,0-1.7-.28-3.12-.83-4.25Zm-11.35-6.92c-.9-.41-1.63-.91-2.19-1.51-.56-.59-.84-1.38-.84-2.35,0-1.31,.45-2.29,1.35-2.95,.54-.39,1.22-.66,2.03-.82v7.78c-.12-.05-.24-.1-.36-.16Zm5.44,14.73c-.43,.31-.92,.56-1.47,.74v-8.29s.05,.02,.07,.03c.89,.44,1.6,1,2.14,1.67,.54,.67,.81,1.54,.81,2.6,0,1.4-.52,2.48-1.56,3.24Z"/><g><polygon class="cls-5" points="185.39 105.23 196.3 129.25 201.38 120.32 211.42 122.12 200.01 97 185.39 105.23"/><polygon class="cls-5" points="168.52 96.66 156.96 122.12 167 120.32 172.08 129.25 182.87 105.5 168.52 96.66"/></g><line class="cls-1" x1="144.75" y1="46.05" x2="187.86" y2="46.05"/><line class="cls-1" x1="144.75" y1="56.75" x2="187.86" y2="56.75"/><line class="cls-1" x1="144.75" y1="67.46" x2="159.73" y2="67.46"/><path class="cls-5" d="M176.31,67.69l2.95-2.63c2.07-1.85,5.14-1.99,7.37-.34l3.17,2.35c.73,.54,1.57,.9,2.45,1.06l3.87,.69c2.72,.49,4.74,2.82,4.86,5.62l.16,3.98c.04,.91,.28,1.8,.71,2.6l1.88,3.5c1.32,2.46,.78,5.52-1.31,7.35l-2.97,2.61c-.68,.6-1.22,1.35-1.57,2.19l-1.53,3.67c-1.07,2.58-3.78,4.05-6.5,3.54l-3.87-.72c-.89-.17-1.8-.12-2.67,.12l-3.79,1.08c-2.66,.76-5.49-.46-6.79-2.93l-1.85-3.51c-.42-.8-1.03-1.5-1.76-2.03l-3.19-2.32c-2.24-1.63-3.06-4.63-1.97-7.2l1.56-3.66c.36-.84,.52-1.75,.47-2.66l-.2-3.98c-.14-2.79,1.67-5.31,4.33-6.04l3.8-1.05c.87-.24,1.67-.68,2.35-1.28Z"/><ellipse class="cls-2" cx="184.19" cy="84.72" rx="9.92" ry="10.04"/></g><g><g><rect class="cls-7" x="13.71" y="41.41" width="46.36" height="45.8"/><path class="cls-8" d="M57.78,43.7v41.22H16V43.7H57.78m2.42-4.58H13.58c-1.19,0-2.16,.97-2.16,2.16v46.06c0,1.19,.97,2.16,2.16,2.16H60.2c1.19,0,2.16-.97,2.16-2.16V41.28c0-1.19-.97-2.16-2.16-2.16h0Z"/></g><path class="cls-6" d="M19.15,33.46c0-1.2,.96-2.17,2.15-2.17h46.65c1.19,0,2.15,.97,2.15,2.17v46.04c0,1.2-.96,2.17-2.15,2.17"/><path class="cls-6" d="M29.61,22.88c0-1.2,.96-2.17,2.15-2.17h46.65c1.19,0,2.15,.97,2.15,2.17v46.04c0,1.2-.96,2.17-2.15,2.17"/><path class="cls-8" d="M43.04,66.08c-.34-.69-.79-1.26-1.34-1.7-.55-.44-1.16-.8-1.83-1.08-.46-.19-.91-.37-1.36-.53v-5.54c.26,.09,.51,.2,.76,.35,.58,.36,1.15,.85,1.71,1.49l2.13-2.16c-.63-.79-1.43-1.43-2.41-1.94-.69-.36-1.42-.58-2.19-.69v-2.6h-2.22v2.61c-.71,.1-1.38,.29-2,.56-.96,.43-1.72,1.05-2.29,1.87-.56,.81-.85,1.8-.85,2.96,0,1.01,.17,1.84,.5,2.5,.33,.66,.77,1.19,1.32,1.6,.55,.41,1.15,.75,1.8,1.02,.5,.21,1.01,.39,1.51,.57v6.18c-.78-.07-1.47-.31-2.05-.7-.72-.49-1.35-1.12-1.89-1.91l-2.13,2.16c.85,1.09,1.8,1.91,2.84,2.47,.93,.5,2.01,.78,3.23,.83v2.54h2.22v-2.67c1.27-.22,2.35-.68,3.2-1.4,1.23-1.03,1.84-2.42,1.84-4.18,0-1.05-.17-1.92-.51-2.61Zm-6.97-4.25c-.55-.25-1-.56-1.34-.93-.34-.36-.51-.85-.51-1.45,0-.8,.28-1.41,.83-1.81,.33-.24,.75-.41,1.25-.5v4.78c-.07-.03-.15-.06-.22-.1Zm3.34,9.05c-.26,.19-.56,.34-.9,.46v-5.09l.04,.02c.55,.27,.98,.61,1.32,1.02,.33,.41,.5,.94,.5,1.6,0,.86-.32,1.52-.96,1.99Z"/></g><g><g><path class="cls-9" d="M63.94,181.44v-14.98h2.46v14.98h-2.46Zm1.69-12.74v-2.25h8.28v2.25h-8.28Zm0,6.16v-2.16h7.66v2.16h-7.66Zm0,6.57v-2.25h8.39v2.25h-8.39Z"/><path class="cls-9" d="M75.82,168.7v-2.25h12.22v2.25h-12.22Zm4.88,12.74v-14.56h2.46v14.56h-2.46Z"/><path class="cls-9" d="M90.22,181.44v-14.98h2.46v14.98h-2.46Zm1.69-12.74v-2.25h7.98v2.25h-7.98Zm0,6.31v-2.25h7.62v2.25h-7.62Z"/></g><path class="cls-3" d="M51.77,183.69h0c-8.72,0-15.79-7.07-15.79-15.79v-38.08"/><path class="cls-3" d="M111.9,183.69h0c8.72,0,15.79-7.07,15.79-15.79v-38.08"/><path class="cls-2" d="M53.25,163.07c-2.71-1.46-4.55-4.32-4.55-7.61v-11.04"/><path class="cls-2" d="M110.57,163.05c2.62-1.45,4.4-4.25,4.4-7.46v-11.17"/><path class="cls-2" d="M81.91,142.67v-23.61"/><path class="cls-4" d="M65.55,148.08v-16.39"/><path class="cls-4" d="M98.28,148.08v-16.39"/><circle class="cls-4" cx="65.55" cy="125.78" r="5.91"/><circle class="cls-4" cx="98.28" cy="125.78" r="5.91"/><circle class="cls-2" cx="114.97" cy="138.51" r="5.91"/><circle class="cls-3" cx="127.7" cy="123.9" r="5.91"/><circle class="cls-2" cx="48.71" cy="138.51" r="5.91"/><circle class="cls-3" cx="35.98" cy="123.9" r="5.91"/><circle class="cls-2" cx="81.91" cy="113.16" r="5.91"/><circle class="cls-1" cx="81.91" cy="173.95" r="30.65"/></g></svg>